<svg xmlns="http://www.w3.org/2000/svg" width="74" height="35" viewBox="0 0 74 35" fill="none">
  <path d="M11.5 22.7852C17.299 22.7852 22 18.0841 22 12.2852C22 6.48617 17.299 1.78516 11.5 1.78516C5.70101 1.78516 1 6.48617 1 12.2852C1 18.0841 5.70101 22.7852 11.5 22.7852Z" stroke="white" stroke-width="2" stroke-miterlimit="10"/>
  <path d="M36.5996 22.7852C42.3986 22.7852 47.0996 18.0841 47.0996 12.2852C47.0996 6.48617 42.3986 1.78516 36.5996 1.78516C30.8006 1.78516 26.0996 6.48617 26.0996 12.2852C26.0996 18.0841 30.8006 22.7852 36.5996 22.7852Z" stroke="white" stroke-width="2" stroke-miterlimit="10"/>
  <path d="M61.5996 22.7852C67.3986 22.7852 72.0996 18.0841 72.0996 12.2852C72.0996 6.48617 67.3986 1.78516 61.5996 1.78516C55.8006 1.78516 51.0996 6.48617 51.0996 12.2852C51.0996 18.0841 55.8006 22.7852 61.5996 22.7852Z" stroke="white" stroke-width="2" stroke-miterlimit="10"/>
  <path d="M23.9004 33.4851C29.6994 33.4851 34.4004 28.7841 34.4004 22.9851C34.4004 17.1861 29.6994 12.4851 23.9004 12.4851C18.1014 12.4851 13.4004 17.1861 13.4004 22.9851C13.4004 28.7841 18.1014 33.4851 23.9004 33.4851Z" stroke="white" stroke-width="2" stroke-miterlimit="10"/>
  <path d="M49.0996 33.4851C54.8986 33.4851 59.5996 28.7841 59.5996 22.9851C59.5996 17.1861 54.8986 12.4851 49.0996 12.4851C43.3006 12.4851 38.5996 17.1861 38.5996 22.9851C38.5996 28.7841 43.3006 33.4851 49.0996 33.4851Z" stroke="white" stroke-width="2" stroke-miterlimit="10"/>
</svg>