<svg width="65" height="64" viewBox="0 0 65 64" fill="none" xmlns="http://www.w3.org/2000/svg">
<rect width="65" height="64" rx="32" fill="white"/>
<path d="M25.9087 35.6687L25.7936 35.1531L18.0537 34.0369V36.6163L25.9087 37.7754V35.6687Z" fill="#071E3E"/>
<path d="M31.6288 22.1612C33.3368 22.1612 34.7263 20.7792 34.7263 19.0807C34.7263 17.382 33.3367 16 31.6288 16C29.9209 16 28.5312 17.382 28.5312 19.0807C28.5312 20.7792 29.9209 22.1612 31.6288 22.1612Z" fill="#071E3E"/>
<path d="M36.4329 37.7797V35.6188C36.4329 35.5937 36.4357 35.5687 36.4397 35.5438C36.4413 35.5356 36.4421 35.5272 36.4439 35.519L36.4699 35.4029L36.515 35.2007L26.7422 35.2027L26.8127 35.5187C26.82 35.5514 26.8236 35.5848 26.8236 35.6183V37.7798H36.4329V37.7797Z" fill="#071E3E"/>
<path d="M37.3486 35.6695V37.5691L46.9578 36.0924V33.5269L37.5031 34.9775L37.3486 35.6695Z" fill="#071E3E"/>
<path d="M24.8161 27.3528C24.9396 27.4143 25.0289 27.5282 25.0589 27.6629L26.5377 34.2877L36.7191 34.2856L38.198 27.6628C38.228 27.5282 38.3173 27.4143 38.4407 27.3529L40.1277 26.5138L43.2574 23.3983L42.1522 22.2984L38.9674 25.4685C38.9037 25.5318 38.8229 25.5751 38.7345 25.5928C35.7739 26.1869 33.655 26.5309 31.5859 26.5309C29.6118 26.5309 27.8118 26.2416 24.5238 25.593C24.4352 25.5756 24.3537 25.5321 24.2896 25.4684L21.1046 22.2983L19.999 23.3982L23.1284 26.5136L24.8161 27.3528Z" fill="#071E3E"/>
<path d="M53.5535 47.2135H50.4651V30.8391H47.8725V32.9935V36.4848V47.2135H36.433V38.695H26.8238V39.9833C26.8238 40.6504 27.0543 41.2055 27.4902 41.5881C27.8838 41.9336 28.4189 42.1239 28.9971 42.1238C30.044 42.1237 31.1709 41.454 31.1709 39.9833C31.1709 39.7306 31.3758 39.5257 31.6285 39.5257C31.8812 39.5257 32.0861 39.7306 32.0861 39.9833V47.2135H17.1386V37.0113V33.5085V30.8391H14.5458V47.2135H11.4576C11.205 47.2135 11 47.4184 11 47.6711C11 47.9239 11.205 48.1288 11.4576 48.1288H53.5536C53.8063 48.1288 54.0112 47.9239 54.0112 47.6711C54.0112 47.4184 53.8062 47.2135 53.5535 47.2135Z" fill="#071E3E"/>
</svg>
