<svg width="170" height="144" viewBox="0 0 171 145" fill="none" xmlns="http://www.w3.org/2000/svg">
<g filter="url(#filter0_d_446_4076)">
<path d="M90.3988 81.8002C89.1988 81.4002 87.1988 81.3002 85.4988 82.7002C83.7988 81.3002 81.7988 81.4002 80.5988 81.8002C79.5988 82.2002 78.7988 82.4002 77.2988 82.4002C78.7988 85.4002 81.8988 87.5002 85.4988 87.5002C89.0988 87.5002 92.1988 85.4002 93.6988 82.4002C92.1988 82.4002 91.3988 82.1002 90.3988 81.8002Z" fill="white"/>
<path d="M85.4992 5C60.7992 5 40.6992 25 40.6992 49.7C40.6992 70.9 55.3992 88.6 75.1992 93.3C59.4992 84.9 53.0992 65.6 60.6992 49.5C61.8992 55.9 66.0992 61.6 72.2992 64.5C64.1992 45.6 70.1992 23.3 86.8992 11C83.5992 22.2 88.5992 32.5 99.4992 40.3C111.899 49.2 112.399 67.4 101.499 77.2C105.799 76.2 109.899 73.8 112.899 70.1C110.999 79.7 104.999 88.4 95.7992 93.3C115.599 88.7 130.299 70.9 130.299 49.7C130.299 25 110.199 5 85.4992 5Z" fill="white"/>
<path d="M153.349 109.24V113.84C152.349 113.14 151.049 112.94 149.949 112.24C149.049 111.74 148.749 110.74 148.749 109.74V105.54H146.549V109.74C146.549 111.14 146.949 112.64 148.149 113.54C148.949 114.14 149.849 114.44 150.749 114.74C151.549 115.04 152.449 115.34 152.949 116.04C153.349 116.54 153.449 117.14 153.449 117.84V119.14H155.549V109.24H153.349ZM138.049 112.94C138.549 112.34 139.049 111.74 139.349 111.04C139.649 110.34 139.749 109.64 139.649 108.94C139.449 107.54 138.449 106.34 137.149 105.84C135.849 105.24 134.149 105.24 132.849 105.94C131.549 106.54 130.649 107.84 130.549 109.24C130.449 110.74 131.149 112.04 132.349 112.94L133.549 111.44C133.149 111.04 132.749 110.54 132.649 109.94C132.549 109.34 132.649 108.84 133.049 108.34C133.749 107.44 135.149 107.14 136.249 107.64C136.749 107.94 137.249 108.34 137.349 108.84C137.549 109.44 137.449 110.04 137.249 110.54C136.949 111.04 136.649 111.54 136.249 112.04C134.749 113.84 133.349 115.54 131.849 117.34C131.349 117.94 130.849 118.64 130.249 119.24H140.049V117.34H134.449L138.049 112.94ZM121.549 114.34C120.749 116.24 118.649 117.54 116.549 117.34C114.449 117.24 112.649 115.74 112.049 113.84C111.449 111.84 112.149 109.64 113.849 108.34C115.549 107.04 117.949 107.04 119.749 108.24C121.749 109.54 122.549 112.14 121.549 114.34ZM122.049 107.34C119.849 105.24 116.449 104.74 113.749 105.94C110.949 107.14 109.349 110.04 109.549 112.94C109.849 115.84 112.049 118.34 114.949 119.04C117.849 119.74 121.149 118.74 122.849 116.24C124.649 113.84 124.549 110.44 122.749 108.04C122.549 107.84 122.249 107.64 122.049 107.34ZM101.549 112.94C102.049 112.34 102.549 111.74 102.849 111.04C103.149 110.34 103.249 109.64 103.149 108.94C102.949 107.54 101.949 106.34 100.649 105.84C99.3492 105.24 97.6492 105.24 96.3492 105.94C95.0492 106.54 94.1492 107.84 94.0492 109.24C93.9492 110.74 94.6492 112.04 95.8492 112.94L97.0492 111.44C96.6492 111.04 96.2492 110.54 96.1492 109.94C96.0492 109.34 96.1492 108.84 96.5492 108.34C97.2492 107.44 98.6492 107.14 99.7492 107.64C100.249 107.94 100.749 108.34 100.849 108.84C101.049 109.44 100.949 110.04 100.749 110.54C100.449 111.04 100.149 111.54 99.7492 112.04C98.2492 113.84 96.8492 115.54 95.3492 117.34L93.7492 119.24H103.549V117.34H97.9492L101.549 112.94ZM81.3492 112.64C80.5492 112.04 79.6492 111.74 78.7492 111.34C77.8492 111.04 76.9492 110.74 76.2492 110.04C75.6492 109.44 75.8492 108.44 76.3492 107.84C76.9492 107.24 77.9492 107.14 78.7492 107.34C79.6492 107.64 80.2492 108.44 80.2492 109.34H82.4492C82.4492 108.34 82.1492 107.44 81.4492 106.64C80.7492 105.94 79.8492 105.54 78.8492 105.34C77.8492 105.24 76.7492 105.34 75.8492 105.84C74.9492 106.34 74.2492 107.04 73.9492 107.94C73.6492 108.84 73.7492 109.94 74.1492 110.74C74.6492 111.64 75.5492 112.14 76.5492 112.54C77.5492 112.94 78.7492 113.24 79.7492 113.84C80.1492 114.14 80.4492 114.44 80.5492 114.84C80.6492 115.24 80.6492 115.74 80.4492 116.14C79.9492 117.14 78.6492 117.44 77.6492 117.24C76.5492 117.04 75.6492 116.14 75.6492 114.94H73.5492C73.5492 116.04 73.9492 117.04 74.7492 117.84C75.5492 118.64 76.6492 119.04 77.8492 119.14C79.0492 119.24 80.2492 119.04 81.2492 118.34C82.1492 117.74 82.7492 116.74 82.8492 115.74C82.7492 114.64 82.3492 113.44 81.3492 112.64ZM64.6492 108.64V119.14H66.8492V108.34C66.0492 108.34 65.3492 108.44 64.6492 108.64ZM64.6492 107.44C65.3492 107.24 66.0492 107.14 66.8492 107.14V105.54H64.6492V107.44ZM52.2492 107.54C53.6492 107.54 55.0492 108.24 55.1492 109.64C55.2492 110.34 55.0492 111.04 54.5492 111.54C54.0492 112.14 53.2492 112.44 52.5492 112.84C51.6492 113.24 50.8492 113.64 50.0492 114.34V107.54H52.2492ZM55.5492 114.04C55.3492 113.94 55.0492 113.84 54.7492 113.74C55.4492 113.34 56.1492 112.94 56.6492 112.34C57.0492 111.74 57.3492 111.14 57.4492 110.44C57.6492 108.94 57.1492 107.54 55.8492 106.64C54.1492 105.44 52.0492 105.64 50.0492 105.64H47.9492V119.24H50.1492V118.04C50.1492 117.14 50.6492 116.24 51.4492 115.84C52.2492 115.34 53.3492 115.34 54.1492 115.64C54.9492 116.04 55.5492 116.84 55.6492 117.64C55.7492 118.14 55.6492 118.74 55.6492 119.24H57.8492C57.8492 118.54 57.8492 117.74 57.7492 117.04C57.4492 115.74 56.6492 114.64 55.5492 114.04ZM38.4492 114.04C37.1492 112.74 35.2492 112.34 33.4492 112.64V110.44C33.4492 110.04 33.4492 109.64 33.5492 109.24C33.7492 108.44 34.3492 107.84 35.1492 107.64C35.9492 107.34 36.8492 107.54 37.5492 108.04C38.2492 108.54 38.5492 109.34 38.5492 110.14V114.34C38.5492 114.14 38.4492 114.04 38.4492 114.04ZM38.4492 105.94C36.5492 104.94 33.8492 105.24 32.4492 106.84C31.7492 107.64 31.3492 108.64 31.3492 109.64V119.14H33.4492V114.64C34.7492 114.44 36.1492 114.64 37.2492 115.34C38.2492 116.04 38.6492 117.04 38.6492 118.14V119.04H40.8492V109.94C40.7492 108.34 40.0492 106.74 38.4492 105.94ZM22.3492 111.34C21.8492 112.04 20.9492 112.54 20.1492 112.94C19.2492 113.34 18.3492 113.84 17.6492 114.44V107.64H19.7492C20.9492 107.64 22.1492 107.94 22.6492 109.14C22.8492 109.74 22.7492 110.64 22.3492 111.34ZM22.4492 106.14C21.4492 105.64 20.2492 105.64 19.1492 105.64H15.4492V119.24H17.6492C17.6492 118.44 17.5492 117.64 17.9492 116.94C18.4492 115.74 19.7492 115.24 20.8492 114.74C22.0492 114.14 23.3492 113.64 24.1492 112.54C24.8492 111.54 25.0492 110.34 24.8492 109.14C24.6492 107.74 23.6492 106.64 22.4492 106.14Z" fill="white"/>
</g>
<defs>
<filter id="filter0_d_446_4076" x="0.449219" y="0" width="170.1" height="144.258" filterUnits="userSpaceOnUse" color-interpolation-filters="sRGB">
<feFlood flood-opacity="0" result="BackgroundImageFix"/>
<feColorMatrix in="SourceAlpha" type="matrix" values="0 0 0 0 0 0 0 0 0 0 0 0 0 0 0 0 0 0 127 0" result="hardAlpha"/>
<feMorphology radius="5" operator="dilate" in="SourceAlpha" result="effect1_dropShadow_446_4076"/>
<feOffset dy="10"/>
<feGaussianBlur stdDeviation="5"/>
<feComposite in2="hardAlpha" operator="out"/>
<feColorMatrix type="matrix" values="0 0 0 0 0 0 0 0 0 0 0 0 0 0 0 0 0 0 0.25 0"/>
<feBlend mode="normal" in2="BackgroundImageFix" result="effect1_dropShadow_446_4076"/>
<feBlend mode="normal" in="SourceGraphic" in2="effect1_dropShadow_446_4076" result="shape"/>
</filter>
</defs>
</svg>
