<svg width="65" height="64" viewBox="0 0 65 64" fill="none" xmlns="http://www.w3.org/2000/svg">
<rect width="65" height="64" rx="32" fill="white"/>
<path d="M28.35 33.7286L30.1 28.4357L25.5 25H31.2L33 19.8L34.8 25H40.5L35.85 28.4357L37.6 33.7286L33 30.4321L28.35 33.7286ZM21 51V36.6536C19.7333 35.3536 18.75 33.8679 18.05 32.1964C17.35 30.525 17 28.7452 17 26.8571C17 22.7095 18.55 19.1964 21.65 16.3179C24.75 13.4393 28.5333 12 33 12C37.4667 12 41.25 13.4393 44.35 16.3179C47.45 19.1964 49 22.7095 49 26.8571C49 28.7452 48.65 30.525 47.95 32.1964C47.25 33.8679 46.2667 35.3536 45 36.6536V51L33 47.2857L21 51ZM33 38C36.3333 38 39.1667 36.9167 41.5 34.75C43.8333 32.5833 45 29.9524 45 26.8571C45 23.7619 43.8333 21.131 41.5 18.9643C39.1667 16.7976 36.3333 15.7143 33 15.7143C29.6667 15.7143 26.8333 16.7976 24.5 18.9643C22.1667 21.131 21 23.7619 21 26.8571C21 29.9524 22.1667 32.5833 24.5 34.75C26.8333 36.9167 29.6667 38 33 38ZM25 45.475L33 43.5714L41 45.475V39.7179C39.8333 40.3369 38.575 40.8244 37.225 41.1804C35.875 41.5363 34.4667 41.7143 33 41.7143C31.5333 41.7143 30.125 41.5363 28.775 41.1804C27.425 40.8244 26.1667 40.3369 25 39.7179V45.475Z" fill="#071E3E"/>
</svg>
