<svg width="65" height="64" viewBox="0 0 65 64" fill="none" xmlns="http://www.w3.org/2000/svg">
<rect width="65" height="64" rx="32" fill="white"/>
<path d="M21 45.6667C20.175 45.6667 19.4688 45.4056 18.8813 44.8833C18.2937 44.3611 18 43.7333 18 43V29.6667C18 28.9333 18.2937 28.3056 18.8813 27.7833C19.4688 27.2611 20.175 27 21 27H45C45.825 27 46.5313 27.2611 47.1188 27.7833C47.7063 28.3056 48 28.9333 48 29.6667V43C48 43.7333 47.7063 44.3611 47.1188 44.8833C46.5313 45.4056 45.825 45.6667 45 45.6667H21ZM21 43H45V29.6667H21V43ZM30 41.6667L39 36.3333L30 31V41.6667ZM21 25.6667V23H45V25.6667H21ZM25.5 21.6667V19H40.5V21.6667H25.5Z" fill="#071E3E"/>
</svg>
