<svg width="32" height="32" viewBox="0 0 91 89" fill="none" xmlns="http://www.w3.org/2000/svg">
<path d="M45.4992 0C20.7992 0 0.699219 20 0.699219 44.7C0.699219 65.9 15.3992 83.6 35.1992 88.3C19.4992 79.9 13.0992 60.6 20.6992 44.5C21.8992 50.9 26.0992 56.6 32.2992 59.5C24.1992 40.6 30.1992 18.3 46.8992 6C43.5992 17.2 48.5992 27.5 59.4992 35.3C71.8992 44.2 72.3992 62.4 61.4992 72.2C65.7992 71.2 69.8992 68.8 72.8992 65.1C70.9992 74.7 64.9992 83.4 55.7992 88.3C75.5992 83.7 90.2992 65.9 90.2992 44.7C90.2992 20 70.1992 0 45.4992 0Z" fill="white"/>
</svg>
